#!OML:ASF Y:\EmotionMaleHayes\Project 1\Capture day 1\Session 1\Male1.ASF
:FULLY-SPECIFIED
:DEGREES
114
root -6.27524 15.2324 3.95162 12.9347 -81.2232 1.42176
lowerback 32.0381 4.84429 -10.5268
upperback 11.2526 1.72133 -0.900181
thorax -4.29004 0.16952 4.06518
lowerneck -20.6768 -3.81267 -3.976
upperneck 4.51394 -5.20119 9.42298
head 5.03464 -2.03415 3.09101
rclavicle 3.97569e-015 3.26007e-014
rhumerus -76.8315 -29.7835 -2.09588
rradius 39.4755
rwrist -54.1162
rhand -33.7675 -53.2562
rfingers 7.12502
rthumb -6.95517 -83.1219
lclavicle 3.97569e-015 3.26007e-014
lhumerus 14.2751 21.6816 4.05386
lradius 39.3029
lwrist 19.6562
lhand -33.1145 -16.4762
lfingers 7.12502
lthumb -6.32476 13.4094
rfemur -45.8209 -11.892 1.17853
rtibia 89.7167
rfoot -2.22843 -12.4121
rtoes 35.0432
lfemur -36.7147 17.7507 4.24542
ltibia 45.6866
lfoot -14.9896 -2.68303
ltoes -32.8747
115
root -6.21753 15.2525 3.84162 13.0402 -80.8905 1.72071
lowerback 32.1394 4.67271 -10.9201
upperback 11.2032 1.34251 -1.28654
thorax -4.31423 -0.00715769 3.98165
lowerneck -20.1089 -3.4053 -3.77609
upperneck 4.27543 -4.76072 9.93877
head 4.85793 -1.80227 3.27356
rclavicle -6.36111e-015 2.46493e-014
rhumerus -78.2886 -29.24 0.853352
rradius 39.4098
rwrist -54.0281
rhand -33.7585 -54.3982
rfingers 7.12502
rthumb -6.94644 -84.2642
lclavicle -6.36111e-015 2.46493e-014
lhumerus 17.4959 22.0079 5.90854
lradius 40.5474
lwrist 20.1998
lhand -32.8 -17.8978
lfingers 7.12502
lthumb -6.02114 11.9966
rfemur -45.5866 -11.9654 2.04022
rtibia 89.4102
rfoot -1.89902 -13.3642
rtoes 33.7323
lfemur -36.804 18.3543 4.5116
ltibia 44.3994
lfoot -14.2135 -3.42247
ltoes -33.2559
116
root -6.14903 15.277 3.71343 12.7647 -80.3998 2.72483
lowerback 32.1952 4.46695 -11.3063
upperback 11.0868 0.933921 -1.7004
thorax -4.38956 -0.186524 3.87563
lowerneck -20.2965 -3.20982 -3.22971
upperneck 4.2236 -4.60989 9.69211
head 4.83996 -1.73332 3.12155
rclavicle -3.33958e-014 -2.94201e-014
rhumerus -79.7575 -28.9461 3.809
rradius 39.4872
rwrist -54.3212
rhand -34.2723 -54.9413
rfingers 7.12502
rthumb -7.44245 -84.7904
lclavicle -3.33958e-014 -2.94201e-014
lhumerus 21.019 22.2136 8.38964
lradius 41.8238
lwrist 20.6128
lhand -32.338 -18.9223
lfingers 7.12502
lthumb -5.57509 10.9844
rfemur -45.6785 -12.26 2.96522
rtibia 89.0812
rfoot -1.71064 -14.1925
rtoes 33.9962
lfemur -37.4081 18.745 4.61583
ltibia 43.0301
lfoot -13.209 -3.57501
ltoes -36.2932
117
root -6.08921 15.3033 3.58958 11.8938 -80.029 4.2749
lowerback 32.225 4.23419 -11.8616
upperback 10.8824 0.441274 -2.12721
thorax -4.53565 -0.399314 3.86964
lowerneck -20.3422 -2.95891 -2.88426
upperneck 4.45111 -4.35953 9.52976
head 4.88967 -1.6059 3.04041
rclavicle 1.59028e-015 -9.54166e-015
rhumerus -80.5476 -28.5567 6.48786
rradius 39.6095
rwrist -55.0946
rhand -34.9504 -54.9274
rfingers 7.12502
rthumb -8.09688 -84.7523
lclavicle 1.59028e-015 -9.54166e-015
lhumerus 24.0116 21.5509 10.6882
lradius 43.1312
lwrist 21.2142
lhand -32.0073 -19.5935
lfingers 7.12502
lthumb -5.25573 10.3213
rfemur -45.6148 -12.546 3.68684
rtibia 88.5338
rfoot -1.61109 -14.6812
rtoes 34.9238
lfemur -37.6848 19.0598 4.60443
ltibia 41.2248
lfoot -11.8917 -3.89891
ltoes -35.7868
118
root -6.02471 15.3268 3.46331 11.8715 -79.3796 5.09997
lowerback 32.1471 3.76569 -12.1512
upperback 10.6522 -0.227598 -2.4577
thorax -4.6555 -0.686657 3.8902
lowerneck -20.5389 -2.61876 -2.71627
upperneck 4.8347 -3.93005 9.18573
head 4.99912 -1.39622 2.94921
rclavicle 2.38542e-014 4.85035e-014
rhumerus -80.9117 -28.4233 9.29364
rradius 39.6721
rwrist -55.5432
rhand -35.0096 -54.8858
rfingers 7.12502
rthumb -8.15399 -84.7085
lclavicle 2.38542e-014 4.85035e-014
lhumerus 26.5578 20.5384 13.0997
lradius 44.4442
lwrist 21.8381
lhand -31.5789 -20.2573
lfingers 7.12502
lthumb -4.8421 9.6674
rfemur -45.5201 -13.1663 4.58298
rtibia 87.7293
rfoot -1.63214 -14.6622
rtoes 34.1323
lfemur -38.2026 19.1253 4.65686
ltibia 39.4328
lfoot -10.7492 -4.35556
ltoes -34.6274
119
root -5.97131 15.3476 3.33896 13.4946 -78.8978 4.19763
lowerback 31.8835 3.34068 -12.0988
upperback 10.5549 -0.71352 -2.81362
thorax -4.60171 -0.89817 3.6512
lowerneck -20.4293 -2.30746 -3.07452
upperneck 4.77995 -3.45265 9.49933
head 4.95021 -1.15184 3.15755
rclavicle 1.43125e-014 8.74653e-015
rhumerus -81.268 -28.5769 11.8543
rradius 40.1159
rwrist -56.766
rhand -36.4951 -55.4189
rfingers 7.12502
rthumb -9.58756 -85.1807
lclavicle 1.43125e-014 8.74653e-015
lhumerus 29.1474 19.2875 15.5077
lradius 45.7403
lwrist 22.7704
lhand -30.8664 -20.7519
lfingers 7.12502
lthumb -4.15412 9.18736
rfemur -45.2066 -13.4479 5.79274
rtibia 86.383
rfoot -2.22016 -14.494
rtoes 33.0699
lfemur -38.3833 19.1373 5.24922
ltibia 37.5726
lfoot -9.82977 -4.62334
ltoes -33.4802
120
root -5.9275 15.3724 3.21155 15.4777 -78.6103 2.6538
lowerback 31.7302 3.05509 -12.1331
upperback 10.4654 -1.07525 -3.12557
thorax -4.59666 -1.05512 3.45889
lowerneck -20.8656 -2.06047 -3.0371
upperneck 5.49473 -3.18812 9.59967
head 5.2279 -0.981013 3.21562
rclavicle 6.36111e-015 1.11319e-014
rhumerus -81.2541 -28.7878 14.2026
rradius 40.7822
rwrist -57.5209
rhand -37.5777 -55.7974
rfingers 7.12502
rthumb -10.632 -85.5084
lclavicle 6.36111e-015 1.11319e-014
lhumerus 31.4729 17.4126 17.1897
lradius 46.8476
lwrist 24.5893
lhand -30.0166 -20.917
lfingers 7.12502
lthumb -3.33346 9.03669
rfemur -44.4157 -13.2117 7.10927
rtibia 84.392
rfoot -3.37193 -14.4
rtoes 32.2498
lfemur -38.1583 18.9285 6.21805
ltibia 35.7977
lfoot -9.1889 -4.26359
ltoes -35.0287
121
root -5.88372 15.4006 3.07675 16.5302 -78.4255 2.01442
lowerback 31.6183 2.86169 -12.3725
upperback 10.3269 -1.40571 -3.52916
thorax -4.65768 -1.19389 3.26303
lowerneck -21.2058 -1.77136 -2.58355
upperneck 6.03837 -2.96529 9.62312
head 5.43339 -0.834921 3.1778
rclavicle 7.95139e-015 6.12257e-014
rhumerus -80.923 -29.016 16.1101
rradius 41.6326
rwrist -58.5009
rhand -39.0552 -56.682
rfingers 7.12502
rthumb -12.0568 -86.3147
lclavicle 7.95139e-015 6.12257e-014
lhumerus 33.7687 15.2524 19.5159
lradius 47.6599
lwrist 25.4434
lhand -29.0559 -20.9444
lfingers 7.12502
lthumb -2.40566 9.02174
rfemur -43.4923 -12.9451 8.23054
rtibia 82.0005
rfoot -4.48065 -14.452
rtoes 31.5307
lfemur -37.9054 18.3667 7.0805
ltibia 34.1096
lfoot -8.44217 -3.56532
ltoes -33.7446
122
root -5.83357 15.4284 2.93726 17.9966 -78.0914 1.0043
lowerback 31.5205 2.67776 -12.2173
upperback 10.3706 -1.59801 -3.86988
thorax -4.5673 -1.28072 2.88733
lowerneck -22.359 -1.66895 -2.32384
upperneck 6.65786 -2.96211 9.67712
head 5.80802 -0.776773 3.16261
rclavicle 0 -1.43125e-014
rhumerus -80.83 -29.7989 18.4308
rradius 42.0416
rwrist -59.022
rhand -39.3152 -55.8259
rfingers 7.12502
rthumb -12.3076 -85.4437
lclavicle 0 -1.43125e-014
lhumerus 36.2495 13.1072 22.9558
lradius 48.2687
lwrist 25.0357
lhand -27.9778 -20.6158
lfingers 7.12502
lthumb -1.36444 9.35962
rfemur -42.4542 -12.9353 9.45681
rtibia 79.1917
rfoot -5.6824 -14.7658
rtoes 31.4107
lfemur -37.9299 17.5297 8.05308
ltibia 32.6495
lfoot -7.89217 -2.66928
ltoes -33.6864
123
root -5.79078 15.4574 2.80458 20.0603 -77.8856 -0.960532
lowerback 31.5898 2.46929 -12.3036
upperback 10.0627 -1.92225 -4.1312
thorax -4.89348 -1.3932 2.76476
lowerneck -21.051 -1.34062 -1.55583
upperneck 6.36107 -2.69081 9.58629
head 5.48288 -0.672497 3.03023
rclavicle -3.49861e-014 -5.88403e-014
rhumerus -79.3961 -30.1384 19.9193
rradius 42.5174
rwrist -59.2333
rhand -39.963 -55.4226
rfingers 7.12502
rthumb -12.9321 -85.0019
lclavicle -3.49861e-014 -5.88403e-014
lhumerus 37.4633 10.0614 24.5934
lradius 48.686
lwrist 25.7828
lhand -26.7693 -19.7601
lfingers 7.12502
lthumb -0.197223 10.2195
rfemur -40.791 -12.7447 10.8223
rtibia 75.9298
rfoot -7.5012 -15.6474
rtoes 31.9681
lfemur -37.5236 16.4664 9.35773
ltibia 31.2779
lfoot -7.60867 -1.40272
ltoes -35.2078
124
root -5.75082 15.4842 2.67735 21.3727 -77.8064 -2.38142
lowerback 31.8384 2.3565 -12.3691
upperback 9.9964 -2.15836 -4.38862
thorax -5.04007 -1.4922 2.60339
lowerneck -21.2833 -0.941942 -1.41712
upperneck 6.57631 -2.20585 9.52747
head 5.55625 -0.423374 3.04473
rclavicle 1.43125e-014 4.77083e-014
rhumerus -77.8962 -30.9988 21.2733
rradius 43.5202
rwrist -59.7199
rhand -41.0808 -55.3194
rfingers 7.12502
rthumb -14.0095 -84.8273
lclavicle 1.43125e-014 4.77083e-014
lhumerus 38.7244 7.22332 26.2637
lradius 48.8684
lwrist 26.4357
lhand -25.5006 -19.0516
lfingers 7.12502
lthumb 1.02809 10.9257
rfemur -38.8971 -12.7331 12.0526
rtibia 73.0087
rfoot -11.111 -17.345
rtoes 29.5076
lfemur -36.9062 14.9221 10.6174
ltibia 30.0889
lfoot -7.08556 0.151915
ltoes -33.9377
125
root -5.7131 15.5052 2.55816 21.9829 -77.7385 -3.13773
lowerback 32.0921 2.23493 -12.3882
upperback 10.0294 -2.39442 -4.66901
thorax -5.08663 -1.60208 2.39317
lowerneck -21.3741 -0.76182 -0.635288
upperneck 6.6599 -2.1751 9.37181
head 5.58605 -0.396728 2.87215
rclavicle 3.18055e-015 5.40694e-014
rhumerus -76.0991 -32.0644 22.2283
rradius 44.5234
rwrist -60.3168
rhand -41.0065 -53.8923
rfingers 7.12502
rthumb -13.9379 -83.4051
lclavicle 3.18055e-015 5.40694e-014
lhumerus 39.8611 4.4137 28.3858
lradius 48.7818
lwrist 26.3908
lhand -24.1589 -18.3888
lfingers 7.12502
lthumb 2.32394 11.5783
rfemur -37.0509 -13.1452 13.0931
rtibia 70.8709
rfoot -16.8786 -18.007
rtoes 23.1865
lfemur -36.3871 12.9797 11.7205
ltibia 29.1836
lfoot -6.69826 1.79353
ltoes -32.9177
126
root -5.67039 15.5208 2.44092 23.0228 -77.6011 -4.34108
lowerback 32.2787 2.07689 -12.2715
upperback 10.1328 -2.61322 -4.90329
thorax -5.04283 -1.71102 2.157
lowerneck -22.1008 -0.408325 -0.158045
upperneck 7.16826 -1.90473 9.39512
head 5.84522 -0.216347 2.84302
rclavicle 4.6118e-014 3.97569e-014
rhumerus -74.0103 -33.4335 22.9646
rradius 45.4131
rwrist -60.503
rhand -41.1351 -52.841
rfingers 7.12502
rthumb -14.0618 -82.3453
lclavicle 4.6118e-014 3.97569e-014
lhumerus 40.9254 1.67857 30.8035
lradius 48.3155
lwrist 25.6146
lhand -22.8233 -17.3666
lfingers 7.12502
lthumb 3.61373 12.5825
rfemur -35.2311 -13.5862 14.197
rtibia 69.1069
rfoot -21.8628 -18.2671
rtoes 13.4149
lfemur -36.1646 10.9619 12.8833
ltibia 28.6497
lfoot -6.35578 3.55656
ltoes -33.8941
127
root -5.6235 15.5297 2.32941 25.2236 -77.6319 -6.8408
lowerback 32.4208 1.98878 -11.8624
upperback 10.2655 -2.65582 -5.1859
thorax -4.99425 -1.73532 1.66761
lowerneck -22.0109 -0.0981083 0.670797
upperneck 6.84737 -1.65195 9.00696
head 5.70342 -0.116885 2.60777
rclavicle 3.02153e-014 6.36111e-015
rhumerus -71.8738 -34.8748 23.6073
rradius 46.4833
rwrist -60.5553
rhand -40.8467 -51.9685
rfingers 7.12502
rthumb -13.7839 -81.4919
lclavicle 3.02153e-014 6.36111e-015
lhumerus 41.7959 -1.29904 33.2231
lradius 47.6687
lwrist 24.3673
lhand -22.1823 -16.9898
lfingers 7.12502
lthumb 4.23271 12.9479
rfemur -33.3135 -13.4143 15.3814
rtibia 67.2425
rfoot -25.0893 -19.2002
rtoes 0.890454
lfemur -35.9414 8.98129 14.3634
ltibia 28.5041
lfoot -7.20904 5.58252
ltoes -29.9525
